%TF.GenerationSoftware,KiCad,Pcbnew,7.0.10*%
%TF.CreationDate,2024-11-19T10:35:13-08:00*%
%TF.ProjectId,pcb,7063622e-6b69-4636-9164-5f7063625858,rev?*%
%TF.SameCoordinates,Original*%
%TF.FileFunction,Paste,Top*%
%TF.FilePolarity,Positive*%
%FSLAX46Y46*%
G04 Gerber Fmt 4.6, Leading zero omitted, Abs format (unit mm)*
G04 Created by KiCad (PCBNEW 7.0.10) date 2024-11-19 10:35:13*
%MOMM*%
%LPD*%
G01*
G04 APERTURE LIST*
G04 Aperture macros list*
%AMRoundRect*
0 Rectangle with rounded corners*
0 $1 Rounding radius*
0 $2 $3 $4 $5 $6 $7 $8 $9 X,Y pos of 4 corners*
0 Add a 4 corners polygon primitive as box body*
4,1,4,$2,$3,$4,$5,$6,$7,$8,$9,$2,$3,0*
0 Add four circle primitives for the rounded corners*
1,1,$1+$1,$2,$3*
1,1,$1+$1,$4,$5*
1,1,$1+$1,$6,$7*
1,1,$1+$1,$8,$9*
0 Add four rect primitives between the rounded corners*
20,1,$1+$1,$2,$3,$4,$5,0*
20,1,$1+$1,$4,$5,$6,$7,0*
20,1,$1+$1,$6,$7,$8,$9,0*
20,1,$1+$1,$8,$9,$2,$3,0*%
G04 Aperture macros list end*
%ADD10C,0.010000*%
%ADD11O,1.291000X1.316000*%
%ADD12R,1.470000X1.160000*%
%ADD13R,1.160000X1.470000*%
%ADD14R,0.855600X1.250000*%
%ADD15R,1.200000X1.100000*%
%ADD16R,0.920000X1.380000*%
%ADD17R,1.117600X1.447800*%
%ADD18R,1.380000X0.920000*%
%ADD19R,1.250000X0.855600*%
%ADD20R,1.320800X0.508000*%
%ADD21R,1.380000X1.050000*%
%ADD22RoundRect,0.076250X-0.513750X-0.228750X0.513750X-0.228750X0.513750X0.228750X-0.513750X0.228750X0*%
%ADD23RoundRect,0.060000X-0.675000X-0.180000X0.675000X-0.180000X0.675000X0.180000X-0.675000X0.180000X0*%
%ADD24R,1.100000X1.200000*%
%ADD25R,1.970000X0.570000*%
%ADD26RoundRect,0.060000X0.180000X-0.675000X0.180000X0.675000X-0.180000X0.675000X-0.180000X-0.675000X0*%
%ADD27R,1.449997X1.305598*%
%ADD28R,0.570000X1.970000*%
%ADD29R,0.800000X1.300000*%
%ADD30R,2.100000X3.000000*%
%ADD31R,1.092200X1.143000*%
%ADD32R,0.400000X0.600000*%
%ADD33R,0.600000X0.400000*%
%ADD34R,1.600200X1.168400*%
%ADD35R,0.760000X2.600000*%
%ADD36R,0.990600X0.889000*%
%ADD37R,0.558800X1.701800*%
%ADD38RoundRect,0.075000X-0.350000X-0.075000X0.350000X-0.075000X0.350000X0.075000X-0.350000X0.075000X0*%
%ADD39RoundRect,0.075000X0.075000X-0.350000X0.075000X0.350000X-0.075000X0.350000X-0.075000X-0.350000X0*%
%ADD40R,1.447800X1.117600*%
%ADD41R,1.663700X0.431800*%
%ADD42R,0.850000X1.000000*%
%ADD43R,0.558800X1.193800*%
%ADD44R,0.400000X1.350000*%
%ADD45R,1.500000X1.550000*%
%ADD46R,1.003300X0.508000*%
G04 APERTURE END LIST*
%TO.C,J1*%
D10*
X166064317Y-88290340D02*
X166090317Y-88292340D01*
X166116317Y-88295340D01*
X166142317Y-88300340D01*
X166167317Y-88306340D01*
X166193317Y-88313340D01*
X166217317Y-88322340D01*
X166241317Y-88332340D01*
X166265317Y-88343340D01*
X166288317Y-88356340D01*
X166310317Y-88370340D01*
X166332317Y-88384340D01*
X166353317Y-88400340D01*
X166373317Y-88417340D01*
X166392317Y-88435340D01*
X166410317Y-88454340D01*
X166427317Y-88474340D01*
X166443317Y-88495340D01*
X166457317Y-88517340D01*
X166471317Y-88539340D01*
X166484317Y-88562340D01*
X166495317Y-88586340D01*
X166505317Y-88610340D01*
X166514317Y-88634340D01*
X166521317Y-88660340D01*
X166527317Y-88685340D01*
X166532317Y-88711340D01*
X166535317Y-88737340D01*
X166537317Y-88763340D01*
X166538317Y-88789340D01*
X166538317Y-89339340D01*
X166537317Y-89365340D01*
X166535317Y-89391340D01*
X166532317Y-89417340D01*
X166527317Y-89443340D01*
X166521317Y-89468340D01*
X166514317Y-89494340D01*
X166505317Y-89518340D01*
X166495317Y-89542340D01*
X166484317Y-89566340D01*
X166471317Y-89589340D01*
X166457317Y-89611340D01*
X166443317Y-89633340D01*
X166427317Y-89654340D01*
X166410317Y-89674340D01*
X166392317Y-89693340D01*
X166373317Y-89711340D01*
X166353317Y-89728340D01*
X166332317Y-89744340D01*
X166310317Y-89758340D01*
X166288317Y-89772340D01*
X166265317Y-89785340D01*
X166241317Y-89796340D01*
X166217317Y-89806340D01*
X166193317Y-89815340D01*
X166167317Y-89822340D01*
X166142317Y-89828340D01*
X166116317Y-89833340D01*
X166090317Y-89836340D01*
X166064317Y-89838340D01*
X166038317Y-89839340D01*
X164893317Y-89839340D01*
X164893317Y-88289340D01*
X166038317Y-88289340D01*
X166064317Y-88290340D01*
G36*
X166064317Y-88290340D02*
G01*
X166090317Y-88292340D01*
X166116317Y-88295340D01*
X166142317Y-88300340D01*
X166167317Y-88306340D01*
X166193317Y-88313340D01*
X166217317Y-88322340D01*
X166241317Y-88332340D01*
X166265317Y-88343340D01*
X166288317Y-88356340D01*
X166310317Y-88370340D01*
X166332317Y-88384340D01*
X166353317Y-88400340D01*
X166373317Y-88417340D01*
X166392317Y-88435340D01*
X166410317Y-88454340D01*
X166427317Y-88474340D01*
X166443317Y-88495340D01*
X166457317Y-88517340D01*
X166471317Y-88539340D01*
X166484317Y-88562340D01*
X166495317Y-88586340D01*
X166505317Y-88610340D01*
X166514317Y-88634340D01*
X166521317Y-88660340D01*
X166527317Y-88685340D01*
X166532317Y-88711340D01*
X166535317Y-88737340D01*
X166537317Y-88763340D01*
X166538317Y-88789340D01*
X166538317Y-89339340D01*
X166537317Y-89365340D01*
X166535317Y-89391340D01*
X166532317Y-89417340D01*
X166527317Y-89443340D01*
X166521317Y-89468340D01*
X166514317Y-89494340D01*
X166505317Y-89518340D01*
X166495317Y-89542340D01*
X166484317Y-89566340D01*
X166471317Y-89589340D01*
X166457317Y-89611340D01*
X166443317Y-89633340D01*
X166427317Y-89654340D01*
X166410317Y-89674340D01*
X166392317Y-89693340D01*
X166373317Y-89711340D01*
X166353317Y-89728340D01*
X166332317Y-89744340D01*
X166310317Y-89758340D01*
X166288317Y-89772340D01*
X166265317Y-89785340D01*
X166241317Y-89796340D01*
X166217317Y-89806340D01*
X166193317Y-89815340D01*
X166167317Y-89822340D01*
X166142317Y-89828340D01*
X166116317Y-89833340D01*
X166090317Y-89836340D01*
X166064317Y-89838340D01*
X166038317Y-89839340D01*
X164893317Y-89839340D01*
X164893317Y-88289340D01*
X166038317Y-88289340D01*
X166064317Y-88290340D01*
G37*
X160293317Y-89839340D02*
X159148317Y-89839340D01*
X159122317Y-89838340D01*
X159096317Y-89836340D01*
X159070317Y-89833340D01*
X159044317Y-89828340D01*
X159019317Y-89822340D01*
X158993317Y-89815340D01*
X158969317Y-89806340D01*
X158945317Y-89796340D01*
X158921317Y-89785340D01*
X158898317Y-89772340D01*
X158876317Y-89758340D01*
X158854317Y-89744340D01*
X158833317Y-89728340D01*
X158813317Y-89711340D01*
X158794317Y-89693340D01*
X158776317Y-89674340D01*
X158759317Y-89654340D01*
X158743317Y-89633340D01*
X158729317Y-89611340D01*
X158715317Y-89589340D01*
X158702317Y-89566340D01*
X158691317Y-89542340D01*
X158681317Y-89518340D01*
X158672317Y-89494340D01*
X158665317Y-89468340D01*
X158659317Y-89443340D01*
X158654317Y-89417340D01*
X158651317Y-89391340D01*
X158649317Y-89365340D01*
X158648317Y-89339340D01*
X158648317Y-88789340D01*
X158649317Y-88763340D01*
X158651317Y-88737340D01*
X158654317Y-88711340D01*
X158659317Y-88685340D01*
X158665317Y-88660340D01*
X158672317Y-88634340D01*
X158681317Y-88610340D01*
X158691317Y-88586340D01*
X158702317Y-88562340D01*
X158715317Y-88539340D01*
X158729317Y-88517340D01*
X158743317Y-88495340D01*
X158759317Y-88474340D01*
X158776317Y-88454340D01*
X158794317Y-88435340D01*
X158813317Y-88417340D01*
X158833317Y-88400340D01*
X158854317Y-88384340D01*
X158876317Y-88370340D01*
X158898317Y-88356340D01*
X158921317Y-88343340D01*
X158945317Y-88332340D01*
X158969317Y-88322340D01*
X158993317Y-88313340D01*
X159019317Y-88306340D01*
X159044317Y-88300340D01*
X159070317Y-88295340D01*
X159096317Y-88292340D01*
X159122317Y-88290340D01*
X159148317Y-88289340D01*
X160293317Y-88289340D01*
X160293317Y-89839340D01*
G36*
X160293317Y-89839340D02*
G01*
X159148317Y-89839340D01*
X159122317Y-89838340D01*
X159096317Y-89836340D01*
X159070317Y-89833340D01*
X159044317Y-89828340D01*
X159019317Y-89822340D01*
X158993317Y-89815340D01*
X158969317Y-89806340D01*
X158945317Y-89796340D01*
X158921317Y-89785340D01*
X158898317Y-89772340D01*
X158876317Y-89758340D01*
X158854317Y-89744340D01*
X158833317Y-89728340D01*
X158813317Y-89711340D01*
X158794317Y-89693340D01*
X158776317Y-89674340D01*
X158759317Y-89654340D01*
X158743317Y-89633340D01*
X158729317Y-89611340D01*
X158715317Y-89589340D01*
X158702317Y-89566340D01*
X158691317Y-89542340D01*
X158681317Y-89518340D01*
X158672317Y-89494340D01*
X158665317Y-89468340D01*
X158659317Y-89443340D01*
X158654317Y-89417340D01*
X158651317Y-89391340D01*
X158649317Y-89365340D01*
X158648317Y-89339340D01*
X158648317Y-88789340D01*
X158649317Y-88763340D01*
X158651317Y-88737340D01*
X158654317Y-88711340D01*
X158659317Y-88685340D01*
X158665317Y-88660340D01*
X158672317Y-88634340D01*
X158681317Y-88610340D01*
X158691317Y-88586340D01*
X158702317Y-88562340D01*
X158715317Y-88539340D01*
X158729317Y-88517340D01*
X158743317Y-88495340D01*
X158759317Y-88474340D01*
X158776317Y-88454340D01*
X158794317Y-88435340D01*
X158813317Y-88417340D01*
X158833317Y-88400340D01*
X158854317Y-88384340D01*
X158876317Y-88370340D01*
X158898317Y-88356340D01*
X158921317Y-88343340D01*
X158945317Y-88332340D01*
X158969317Y-88322340D01*
X158993317Y-88313340D01*
X159019317Y-88306340D01*
X159044317Y-88300340D01*
X159070317Y-88295340D01*
X159096317Y-88292340D01*
X159122317Y-88290340D01*
X159148317Y-88289340D01*
X160293317Y-88289340D01*
X160293317Y-89839340D01*
G37*
%TD*%
D11*
%TO.C,U19*%
X196000000Y-123730000D03*
%TD*%
%TO.C,U18*%
X173150000Y-123810000D03*
%TD*%
%TO.C,U17*%
X129180000Y-91840000D03*
%TD*%
%TO.C,U16*%
X150050000Y-122230000D03*
%TD*%
D12*
%TO.C,C45*%
X143970000Y-86965000D03*
X143970000Y-88715000D03*
%TD*%
D13*
%TO.C,C44*%
X144885000Y-91310000D03*
X146635000Y-91310000D03*
%TD*%
%TO.C,C43*%
X151615000Y-88770000D03*
X149865000Y-88770000D03*
%TD*%
D14*
%TO.C,C22*%
X168959400Y-117475000D03*
X170815000Y-117475000D03*
%TD*%
D15*
%TO.C,D3*%
X166370000Y-96520000D03*
X166370000Y-98620000D03*
%TD*%
D16*
%TO.C,R3*%
X180335000Y-119405000D03*
X182245000Y-119405000D03*
%TD*%
D14*
%TO.C,C32*%
X191862200Y-117500000D03*
X193717800Y-117500000D03*
%TD*%
D13*
%TO.C,C4*%
X162800000Y-122555000D03*
X161050000Y-122555000D03*
%TD*%
D17*
%TO.C,C33*%
X188328300Y-125730000D03*
X190131700Y-125730000D03*
%TD*%
D13*
%TO.C,C15*%
X162800000Y-120015000D03*
X161050000Y-120015000D03*
%TD*%
%TO.C,C19*%
X158510000Y-125095000D03*
X160260000Y-125095000D03*
%TD*%
D12*
%TO.C,C28*%
X139065000Y-105890000D03*
X139065000Y-104140000D03*
%TD*%
D13*
%TO.C,C2*%
X152640000Y-113194340D03*
X150890000Y-113194340D03*
%TD*%
D18*
%TO.C,R26*%
X150495000Y-103984340D03*
X150495000Y-105894340D03*
%TD*%
D19*
%TO.C,C29*%
X131445000Y-91732800D03*
X131445000Y-89877200D03*
%TD*%
D18*
%TO.C,R11*%
X185485000Y-124800000D03*
X185485000Y-126710000D03*
%TD*%
D20*
%TO.C,U8*%
X172085000Y-97004339D03*
X172085000Y-97954340D03*
X172085000Y-98904341D03*
X174675800Y-98904341D03*
X174675800Y-97004339D03*
%TD*%
D21*
%TO.C,C1*%
X147320000Y-111200140D03*
X147320000Y-109424140D03*
%TD*%
D16*
%TO.C,R22*%
X138745000Y-113665000D03*
X140655000Y-113665000D03*
%TD*%
%TO.C,R9*%
X169894117Y-94779340D03*
X171804117Y-94779340D03*
%TD*%
D22*
%TO.C,Q3*%
X161908317Y-97789340D03*
X161908317Y-99619340D03*
X163958317Y-98704340D03*
%TD*%
D16*
%TO.C,R20*%
X138745000Y-98030000D03*
X140655000Y-98030000D03*
%TD*%
D23*
%TO.C,U5*%
X154695000Y-120945000D03*
X154695000Y-121595000D03*
X154695000Y-122245000D03*
X154695000Y-122895000D03*
X158995000Y-122895000D03*
X158995000Y-122245000D03*
X158995000Y-121595000D03*
X158995000Y-120945000D03*
%TD*%
D12*
%TO.C,C38*%
X154940000Y-107874340D03*
X154940000Y-109624340D03*
%TD*%
D16*
%TO.C,R13*%
X162880000Y-117475000D03*
X160970000Y-117475000D03*
%TD*%
D24*
%TO.C,D1*%
X183954117Y-86995000D03*
X181854117Y-86995000D03*
%TD*%
D25*
%TO.C,U15*%
X188660000Y-119405000D03*
X188660000Y-120675000D03*
X188660000Y-121945000D03*
X188660000Y-123215000D03*
X193610000Y-123215000D03*
X193610000Y-121945000D03*
X193610000Y-120675000D03*
X193610000Y-119405000D03*
%TD*%
D26*
%TO.C,U10*%
X134739201Y-105917550D03*
X135389201Y-105917550D03*
X136039201Y-105917550D03*
X136689201Y-105917550D03*
X136689201Y-101617550D03*
X136039201Y-101617550D03*
X135389201Y-101617550D03*
X134739201Y-101617550D03*
%TD*%
D16*
%TO.C,R17*%
X165415000Y-117475000D03*
X167325000Y-117475000D03*
%TD*%
D27*
%TO.C,C6*%
X180374117Y-102063742D03*
X180374117Y-103669340D03*
%TD*%
D18*
%TO.C,R19*%
X132715000Y-103430000D03*
X132715000Y-101520000D03*
%TD*%
D16*
%TO.C,R6*%
X182274117Y-89064340D03*
X184184117Y-89064340D03*
%TD*%
%TO.C,R2*%
X166050000Y-93980000D03*
X167960000Y-93980000D03*
%TD*%
%TO.C,R34*%
X146285000Y-124446400D03*
X148195000Y-124446400D03*
%TD*%
D13*
%TO.C,C17*%
X177240000Y-125120000D03*
X178990000Y-125120000D03*
%TD*%
D16*
%TO.C,R14*%
X157160000Y-118745000D03*
X159070000Y-118745000D03*
%TD*%
D13*
%TO.C,C34*%
X139925000Y-119366400D03*
X138175000Y-119366400D03*
%TD*%
%TO.C,C16*%
X185975000Y-122580000D03*
X184225000Y-122580000D03*
%TD*%
D16*
%TO.C,R16*%
X168590000Y-125095000D03*
X170500000Y-125095000D03*
%TD*%
D28*
%TO.C,U11*%
X133350000Y-94790000D03*
X134620000Y-94790000D03*
X135890000Y-94790000D03*
X137160000Y-94790000D03*
X137160000Y-89840000D03*
X135890000Y-89840000D03*
X134620000Y-89840000D03*
X133350000Y-89840000D03*
%TD*%
D12*
%TO.C,C7*%
X190731617Y-95611840D03*
X190731617Y-93861840D03*
%TD*%
D27*
%TO.C,C5*%
X180374117Y-100027139D03*
X180374117Y-98421541D03*
%TD*%
D29*
%TO.C,J2*%
X171494117Y-87159340D03*
X172744117Y-87159340D03*
D30*
X168944117Y-89909340D03*
X175294117Y-89909340D03*
%TD*%
D16*
%TO.C,R5*%
X134300000Y-114300000D03*
X136210000Y-114300000D03*
%TD*%
D18*
%TO.C,R36*%
X159368317Y-102230000D03*
X159368317Y-104140000D03*
%TD*%
D16*
%TO.C,R28*%
X188025000Y-117500000D03*
X189935000Y-117500000D03*
%TD*%
D17*
%TO.C,C23*%
X164833300Y-125730000D03*
X166636700Y-125730000D03*
%TD*%
D18*
%TO.C,R30*%
X131445000Y-95175000D03*
X131445000Y-93265000D03*
%TD*%
D12*
%TO.C,C13*%
X169545000Y-96839340D03*
X169545000Y-98589340D03*
%TD*%
D24*
%TO.C,D4*%
X184184117Y-92075000D03*
X182084117Y-92075000D03*
%TD*%
D25*
%TO.C,U13*%
X142860000Y-118731400D03*
X142860000Y-120001400D03*
X142860000Y-121271400D03*
X142860000Y-122541400D03*
X147810000Y-122541400D03*
X147810000Y-121271400D03*
X147810000Y-120001400D03*
X147810000Y-118731400D03*
%TD*%
D13*
%TO.C,C36*%
X133510000Y-124446400D03*
X131760000Y-124446400D03*
%TD*%
D31*
%TO.C,D2*%
X159758317Y-97167640D03*
X159758317Y-100241040D03*
%TD*%
D12*
%TO.C,C10*%
X168258317Y-103669340D03*
X168258317Y-101919340D03*
%TD*%
D16*
%TO.C,R10*%
X182274117Y-94144340D03*
X184184117Y-94144340D03*
%TD*%
%TO.C,R35*%
X142475000Y-116826400D03*
X144385000Y-116826400D03*
%TD*%
D18*
%TO.C,R18*%
X131445000Y-97710000D03*
X131445000Y-99620000D03*
%TD*%
D12*
%TO.C,C8*%
X156845000Y-91844340D03*
X156845000Y-90094340D03*
%TD*%
D16*
%TO.C,R29*%
X192085000Y-125120000D03*
X193995000Y-125120000D03*
%TD*%
D18*
%TO.C,R25*%
X147955000Y-103984340D03*
X147955000Y-105894340D03*
%TD*%
%TO.C,R38*%
X177834117Y-92239340D03*
X177834117Y-94149340D03*
%TD*%
D32*
%TO.C,MDBT1*%
X193270000Y-99079340D03*
X192170000Y-99079340D03*
X191370000Y-99079340D03*
X189770000Y-99079340D03*
X189370000Y-99979340D03*
X188970000Y-99079340D03*
X188570000Y-99979340D03*
X188170000Y-99079340D03*
X187770000Y-99979340D03*
X187370000Y-99079340D03*
X186970000Y-99979340D03*
X186570000Y-99079340D03*
X186170000Y-99979340D03*
X185770000Y-99079340D03*
D33*
X182370000Y-98929340D03*
X182370000Y-99729340D03*
X182370000Y-100529340D03*
X182370000Y-101329340D03*
X183270000Y-101729340D03*
X182370000Y-102129340D03*
X183270000Y-102529340D03*
X182370000Y-102929340D03*
X183270000Y-103329340D03*
X182370000Y-103729340D03*
X183270000Y-104129340D03*
X182370000Y-104529340D03*
X183270000Y-104929340D03*
X182370000Y-105329340D03*
X183270000Y-105729340D03*
X182370000Y-106129340D03*
X182370000Y-106929340D03*
X182370000Y-107729340D03*
X182370000Y-108529340D03*
D32*
X183370000Y-108379340D03*
X184170000Y-108379340D03*
X184570000Y-107479340D03*
X184970000Y-108379340D03*
X185370000Y-107479340D03*
X185770000Y-108379340D03*
X186170000Y-107479340D03*
X186570000Y-108379340D03*
X186970000Y-107479340D03*
X187770000Y-107479340D03*
X188170000Y-108379340D03*
X188570000Y-107479340D03*
X188970000Y-108379340D03*
X189370000Y-107479340D03*
X189770000Y-108379340D03*
X190170000Y-107479340D03*
X190970000Y-107479340D03*
X191370000Y-108379340D03*
X191770000Y-107479340D03*
X192170000Y-108379340D03*
X192570000Y-107479340D03*
X193270000Y-108379340D03*
D33*
X188970000Y-101729340D03*
X188970000Y-102529340D03*
X188970000Y-103329340D03*
X188970000Y-104129340D03*
X188970000Y-104929340D03*
X188970000Y-105729340D03*
%TD*%
D34*
%TO.C,Y1*%
X177834117Y-99371342D03*
X177834117Y-102216142D03*
%TD*%
D35*
%TO.C,X1*%
X175929117Y-108504340D03*
X175929117Y-112804340D03*
X174659117Y-108504340D03*
X174659117Y-112804340D03*
X173389117Y-108504340D03*
X173389117Y-112804340D03*
X172119117Y-108504340D03*
X172119117Y-112804340D03*
X170849117Y-108504340D03*
X170849117Y-112804340D03*
%TD*%
D36*
%TO.C,SW2*%
X192680000Y-90969996D03*
X192680000Y-86870000D03*
X194280002Y-90969996D03*
X194280002Y-86870000D03*
D37*
X192055000Y-88919998D03*
%TD*%
D11*
%TO.C,U3*%
X131445000Y-109220000D03*
X131445000Y-111760000D03*
X133985000Y-109220000D03*
X133985000Y-111760000D03*
X136525000Y-109220000D03*
X136525000Y-111760000D03*
X139065000Y-109220000D03*
X139065000Y-111760000D03*
X141605000Y-109220000D03*
X141605000Y-111760000D03*
X144145000Y-109220000D03*
X144145000Y-111760000D03*
%TD*%
D16*
%TO.C,R32*%
X134285000Y-118096400D03*
X136195000Y-118096400D03*
%TD*%
D18*
%TO.C,R33*%
X139685000Y-124126400D03*
X139685000Y-126036400D03*
%TD*%
D16*
%TO.C,R12*%
X186055000Y-117500000D03*
X184145000Y-117500000D03*
%TD*%
D18*
%TO.C,R27*%
X163864117Y-109064340D03*
X163864117Y-110974340D03*
%TD*%
D12*
%TO.C,C20*%
X173355000Y-119775000D03*
X173355000Y-121525000D03*
%TD*%
D18*
%TO.C,R7*%
X157218317Y-97749340D03*
X157218317Y-99659340D03*
%TD*%
D13*
%TO.C,C18*%
X185975000Y-120040000D03*
X184225000Y-120040000D03*
%TD*%
D36*
%TO.C,SW1*%
X188709998Y-90999996D03*
X188709998Y-86900000D03*
X190310000Y-90999996D03*
X190310000Y-86900000D03*
D37*
X188084998Y-88949998D03*
%TD*%
D38*
%TO.C,U1*%
X149225000Y-108114340D03*
X149225000Y-108614340D03*
X149225000Y-109114340D03*
X149225000Y-109614340D03*
X149225000Y-110114340D03*
X149225000Y-110614340D03*
D39*
X149925000Y-111314340D03*
X150425000Y-111314340D03*
X150925000Y-111314340D03*
X151425000Y-111314340D03*
X151925000Y-111314340D03*
X152425000Y-111314340D03*
D38*
X153125000Y-110614340D03*
X153125000Y-110114340D03*
X153125000Y-109614340D03*
X153125000Y-109114340D03*
X153125000Y-108614340D03*
X153125000Y-108114340D03*
D39*
X152425000Y-107414340D03*
X151925000Y-107414340D03*
X151425000Y-107414340D03*
X150925000Y-107414340D03*
X150425000Y-107414340D03*
X149925000Y-107414340D03*
%TD*%
D16*
%TO.C,R8*%
X173678717Y-94779340D03*
X175588717Y-94779340D03*
%TD*%
D12*
%TO.C,C3*%
X196030000Y-119800000D03*
X196030000Y-121550000D03*
%TD*%
D25*
%TO.C,IC1*%
X186789117Y-110490000D03*
X186789117Y-111760000D03*
X186789117Y-113030000D03*
X186789117Y-114300000D03*
X191739117Y-114300000D03*
X191739117Y-113030000D03*
X191739117Y-111760000D03*
X191739117Y-110490000D03*
%TD*%
D13*
%TO.C,C35*%
X135570000Y-124446400D03*
X137320000Y-124446400D03*
%TD*%
D12*
%TO.C,C40*%
X150415000Y-120241400D03*
X150415000Y-118491400D03*
%TD*%
D18*
%TO.C,R21*%
X139065000Y-91365000D03*
X139065000Y-89455000D03*
%TD*%
D12*
%TO.C,C9*%
X188191617Y-95611840D03*
X188191617Y-93861840D03*
%TD*%
D23*
%TO.C,U12*%
X131820000Y-120296400D03*
X131820000Y-120946400D03*
X131820000Y-121596400D03*
X131820000Y-122246400D03*
X136120000Y-122246400D03*
X136120000Y-121596400D03*
X136120000Y-120946400D03*
X136120000Y-120296400D03*
%TD*%
D12*
%TO.C,C14*%
X165718317Y-103669340D03*
X165718317Y-101919340D03*
%TD*%
D13*
%TO.C,C37*%
X183250000Y-125120000D03*
X181500000Y-125120000D03*
%TD*%
D25*
%TO.C,U9*%
X165800000Y-119380000D03*
X165800000Y-120650000D03*
X165800000Y-121920000D03*
X165800000Y-123190000D03*
X170750000Y-123190000D03*
X170750000Y-121920000D03*
X170750000Y-120650000D03*
X170750000Y-119380000D03*
%TD*%
D40*
%TO.C,C30*%
X139700000Y-94855000D03*
X139700000Y-93051600D03*
%TD*%
D14*
%TO.C,C39*%
X152400000Y-105574340D03*
X154255600Y-105574340D03*
%TD*%
D18*
%TO.C,R37*%
X177834117Y-88744340D03*
X177834117Y-90654340D03*
%TD*%
%TO.C,R15*%
X162560000Y-124775000D03*
X162560000Y-126685000D03*
%TD*%
D41*
%TO.C,U6*%
X152434117Y-93389340D03*
X152434117Y-94039341D03*
X152434117Y-94689340D03*
X152434117Y-95339341D03*
X152434117Y-95989340D03*
X152434117Y-96639341D03*
X152434117Y-97289340D03*
X152434117Y-97939338D03*
X152434117Y-98589340D03*
X152434117Y-99239338D03*
X152434117Y-99889339D03*
X152434117Y-100539338D03*
X145182417Y-100539338D03*
X145182417Y-99889337D03*
X145182417Y-99239338D03*
X145182417Y-98589337D03*
X145182417Y-97939338D03*
X145182417Y-97289337D03*
X145182417Y-96639338D03*
X145182417Y-95989337D03*
X145182417Y-95339338D03*
X145182417Y-94689337D03*
X145182417Y-94039339D03*
X145182417Y-93389340D03*
%TD*%
D16*
%TO.C,R1*%
X162240000Y-94144340D03*
X164150000Y-94144340D03*
%TD*%
D42*
%TO.C,D5*%
X193031617Y-96486840D03*
X194781617Y-96486840D03*
X194781617Y-92986840D03*
X193031617Y-92986840D03*
%TD*%
D43*
%TO.C,U14*%
X146050000Y-89250000D03*
X147950002Y-89250000D03*
X147000001Y-87091000D03*
%TD*%
D16*
%TO.C,R31*%
X140005000Y-116840000D03*
X138095000Y-116840000D03*
%TD*%
D13*
%TO.C,C27*%
X134140000Y-87235000D03*
X135890000Y-87235000D03*
%TD*%
D12*
%TO.C,C12*%
X156845000Y-103669340D03*
X156845000Y-101919340D03*
%TD*%
D13*
%TO.C,C31*%
X139925000Y-121906400D03*
X138175000Y-121906400D03*
%TD*%
%TO.C,C11*%
X183309117Y-97319340D03*
X185059117Y-97319340D03*
%TD*%
D44*
%TO.C,J1*%
X163893317Y-91739340D03*
X163243317Y-91739340D03*
X162593317Y-91739340D03*
X161943317Y-91739340D03*
X161293317Y-91739340D03*
D45*
X161593317Y-89064340D03*
X163593317Y-89064340D03*
%TD*%
D12*
%TO.C,C25*%
X133985000Y-97790000D03*
X133985000Y-99540000D03*
%TD*%
D16*
%TO.C,R4*%
X130805000Y-114300000D03*
X132715000Y-114300000D03*
%TD*%
D13*
%TO.C,C21*%
X154700000Y-125095000D03*
X156450000Y-125095000D03*
%TD*%
D12*
%TO.C,C24*%
X136525000Y-97790000D03*
X136525000Y-99540000D03*
%TD*%
D46*
%TO.C,U7*%
X161108217Y-102159340D03*
X161108217Y-103109341D03*
X161108217Y-104059342D03*
X163813317Y-104059342D03*
X163813317Y-102159340D03*
%TD*%
D23*
%TO.C,U4*%
X177870000Y-121280000D03*
X177870000Y-121930000D03*
X177870000Y-122580000D03*
X177870000Y-123230000D03*
X182170000Y-123230000D03*
X182170000Y-122580000D03*
X182170000Y-121930000D03*
X182170000Y-121280000D03*
%TD*%
D14*
%TO.C,C41*%
X146312200Y-116826400D03*
X148167800Y-116826400D03*
%TD*%
D17*
%TO.C,C42*%
X142528300Y-125095000D03*
X144331700Y-125095000D03*
%TD*%
D12*
%TO.C,C26*%
X139065000Y-102080000D03*
X139065000Y-100330000D03*
%TD*%
M02*
