M48
; DRILL file {KiCad 7.0.10} date Tue Nov 19 10:35:04 2024
; FORMAT={-:-/ absolute / inch / decimal}
; #@! TF.CreationDate,2024-11-19T10:35:04-08:00
; #@! TF.GenerationSoftware,Kicad,Pcbnew,7.0.10
; #@! TF.FileFunction,Plated,1,2,PTH
FMAT,2
INCH
; #@! TA.AperFunction,Plated,PTH,ViaDrill
T1C0.0098
; #@! TA.AperFunction,Plated,PTH,ViaDrill
T2C0.0157
; #@! TA.AperFunction,Plated,PTH,ComponentDrill
T3C0.0197
; #@! TA.AperFunction,Plated,PTH,ComponentDrill
T4C0.0217
; #@! TA.AperFunction,Plated,PTH,ComponentDrill
T5C0.0295
%
G90
G05
T1
X5.3622Y-4.6
X5.4Y-3.475
X5.4Y-4.45
X5.4Y-4.5
X5.425Y-4.375
X5.5472Y-4.1972
X5.5699Y-3.5553
X5.575Y-4.3476
X5.575Y-4.45
X5.59Y-3.7268
X5.5926Y-3.4836
X5.6571Y-3.7457
X5.675Y-4.225
X5.7239Y-4.4037
X5.725Y-4.5004
X5.726Y-4.25
X5.7827Y-3.9543
X5.7874Y-4.5124
X5.7929Y-4.0079
X5.8Y-3.7665
X5.8123Y-4.5337
X5.825Y-4.225
X5.85Y-3.7
X5.8597Y-3.9001
X5.8606Y-3.9535
X5.875Y-3.875
X5.875Y-4.125
X5.878Y-4.5709
X5.9Y-3.975
X5.95Y-4.525
X5.9511Y-4.6134
X5.975Y-4.5496
X6.0244Y-4.8122
X6.061Y-3.9185
X6.075Y-3.725
X6.075Y-3.775
X6.075Y-3.825
X6.1273Y-4.4987
X6.1874Y-4.1689
X6.2087Y-4.5496
X6.2245Y-4.0445
X6.225Y-4.5
X6.225Y-4.625
X6.2272Y-3.792
X6.2343Y-4.525
X6.2417Y-4.1937
X6.3583Y-4.2341
X6.3966Y-4.2142
X6.4074Y-3.8252
X6.4461Y-3.9784
X6.4992Y-3.7197
X6.55Y-4.275
X6.611Y-3.6531
X6.6429Y-4.7
X6.6945Y-4.439
X6.7Y-4.15
X6.7992Y-4.3697
X6.85Y-4.15
X6.8579Y-4.3717
X6.9165Y-4.6721
X6.95Y-3.675
X6.9598Y-4.4358
X7.0265Y-3.775
X7.0417Y-3.7492
X7.0546Y-4.4046
X7.075Y-4.4328
X7.0792Y-4.225
X7.1161Y-4.5496
X7.1252Y-3.598
X7.175Y-3.8
X7.175Y-3.825
X7.1797Y-3.7703
X7.2189Y-4.4346
X7.2394Y-4.4165
X7.2476Y-4.0512
X7.2479Y-4.1345
X7.25Y-3.9
X7.2529Y-4.0966
X7.2665Y-4.1988
X7.2682Y-4.319
X7.2866Y-4.3358
X7.2878Y-4.4484
X7.298Y-3.7697
X7.298Y-4.2
X7.3Y-3.5179
X7.3Y-3.6
X7.3237Y-4.1903
X7.3339Y-4.3039
X7.35Y-3.6807
X7.35Y-3.8144
X7.3641Y-3.4236
X7.3795Y-4.2618
X7.3797Y-4.2033
X7.4161Y-4.2
X7.45Y-4.375
X7.465Y-4.4555
X7.4714Y-3.809
X7.4732Y-4.2024
X7.475Y-3.475
X7.4818Y-3.9298
X7.4937Y-4.4366
X7.5047Y-4.2669
X7.539Y-4.0858
X7.5413Y-3.961
X7.5862Y-4.2673
X7.6185Y-3.4514
X7.6207Y-3.725
X7.678Y-3.965
X7.689Y-4.2709
X7.6972Y-4.1028
X7.7Y-4.075
X7.7Y-4.1281
X7.7018Y-4.4959
X7.7038Y-4.4662
X7.729Y-4.451
X7.7496Y-4.4204
X7.7748Y-4.3732
T2
X5.0528Y-3.5173
X5.1Y-4.175
X5.15Y-4.875
X5.2Y-3.4594
X5.3Y-4.225
X5.3Y-4.75
X5.325Y-4.0844
X5.4047Y-4.5472
X5.4346Y-3.7079
X5.4547Y-4.8531
X5.55Y-3.35
X5.575Y-4.025
X5.5795Y-4.865
X5.625Y-5.05
X5.6339Y-3.5469
X5.6562Y-3.6111
X5.7429Y-4.3138
X5.8346Y-3.5791
X5.8587Y-4.4031
X5.8969Y-4.5995
X5.95Y-4.85
X5.9685Y-3.5724
X5.975Y-4.1075
X6.0587Y-4.424
X6.075Y-3.875
X6.075Y-4.675
X6.0957Y-4.3685
X6.1091Y-3.4382
X6.1606Y-4.2484
X6.175Y-4.775
X6.275Y-4.3
X6.3Y-3.675
X6.325Y-5.05
X6.387Y-4.126
X6.4941Y-4.8878
X6.5Y-3.35
X6.525Y-4.425
X6.55Y-3.6
X6.575Y-4.15
X6.65Y-4.275
X6.6752Y-3.925
X6.6819Y-3.9988
X6.685Y-4.0339
X6.7079Y-3.925
X6.7142Y-4.0146
X6.7253Y-3.8471
X6.7402Y-3.925
X6.75Y-3.55
X6.775Y-4.1
X6.8Y-4.65
X6.875Y-4.825
X6.9146Y-4.1126
X6.95Y-3.85
X6.9587Y-3.7504
X6.972Y-3.4059
X6.975Y-4.275
X6.975Y-4.325
X7.0Y-5.05
X7.0398Y-4.0839
X7.0502Y-3.6329
X7.0561Y-3.6699
X7.0907Y-3.6498
X7.1Y-3.575
X7.1026Y-4.7886
X7.1234Y-4.148
X7.1413Y-4.2413
X7.1547Y-3.861
X7.18Y-4.58
X7.4028Y-4.1496
X7.4043Y-3.6315
X7.425Y-5.05
X7.4437Y-4.8882
X7.4909Y-4.1343
X7.5154Y-4.6957
X7.5169Y-3.4717
X7.5941Y-4.0976
X7.6374Y-3.5299
X7.665Y-4.0252
X7.693Y-4.56
X7.7026Y-4.6636
X7.8Y-4.85
X7.844Y-3.518
X7.85Y-3.7
X7.85Y-3.948
X7.85Y-4.55
T5
X6.3263Y-4.3065
X6.3263Y-4.3565
X6.3263Y-4.4065
T3
G00X6.2635Y-3.5193
M15
G01X6.2635Y-3.4937
M16
G05
G00X6.5391Y-3.5193
M15
G01X6.5391Y-3.4937
M16
G05
T4
G00X6.3098Y-3.6128
M15
G01X6.296Y-3.6128
M16
G05
G00X6.5066Y-3.6128
M15
G01X6.4928Y-3.6128
M16
G05
M30
