%TF.GenerationSoftware,KiCad,Pcbnew,7.0.10*%
%TF.CreationDate,2024-11-19T10:35:13-08:00*%
%TF.ProjectId,pcb,7063622e-6b69-4636-9164-5f7063625858,rev?*%
%TF.SameCoordinates,Original*%
%TF.FileFunction,Soldermask,Top*%
%TF.FilePolarity,Negative*%
%FSLAX46Y46*%
G04 Gerber Fmt 4.6, Leading zero omitted, Abs format (unit mm)*
G04 Created by KiCad (PCBNEW 7.0.10) date 2024-11-19 10:35:13*
%MOMM*%
%LPD*%
G01*
G04 APERTURE LIST*
G04 Aperture macros list*
%AMRoundRect*
0 Rectangle with rounded corners*
0 $1 Rounding radius*
0 $2 $3 $4 $5 $6 $7 $8 $9 X,Y pos of 4 corners*
0 Add a 4 corners polygon primitive as box body*
4,1,4,$2,$3,$4,$5,$6,$7,$8,$9,$2,$3,0*
0 Add four circle primitives for the rounded corners*
1,1,$1+$1,$2,$3*
1,1,$1+$1,$4,$5*
1,1,$1+$1,$6,$7*
1,1,$1+$1,$8,$9*
0 Add four rect primitives between the rounded corners*
20,1,$1+$1,$2,$3,$4,$5,0*
20,1,$1+$1,$4,$5,$6,$7,0*
20,1,$1+$1,$6,$7,$8,$9,0*
20,1,$1+$1,$8,$9,$2,$3,0*%
G04 Aperture macros list end*
%ADD10C,0.010000*%
%ADD11O,1.495000X1.520000*%
%ADD12RoundRect,0.102000X-0.735000X0.580000X-0.735000X-0.580000X0.735000X-0.580000X0.735000X0.580000X0*%
%ADD13RoundRect,0.102000X0.580000X0.735000X-0.580000X0.735000X-0.580000X-0.735000X0.580000X-0.735000X0*%
%ADD14R,0.855600X1.250000*%
%ADD15RoundRect,0.102000X0.600000X-0.550000X0.600000X0.550000X-0.600000X0.550000X-0.600000X-0.550000X0*%
%ADD16RoundRect,0.102000X-0.460000X-0.690000X0.460000X-0.690000X0.460000X0.690000X-0.460000X0.690000X0*%
%ADD17R,1.117600X1.447800*%
%ADD18RoundRect,0.102000X-0.580000X-0.735000X0.580000X-0.735000X0.580000X0.735000X-0.580000X0.735000X0*%
%ADD19RoundRect,0.102000X0.735000X-0.580000X0.735000X0.580000X-0.735000X0.580000X-0.735000X-0.580000X0*%
%ADD20R,1.500000X1.050000*%
%ADD21O,1.500000X1.050000*%
%ADD22RoundRect,0.102000X-0.690000X0.460000X-0.690000X-0.460000X0.690000X-0.460000X0.690000X0.460000X0*%
%ADD23R,1.250000X0.855600*%
%ADD24R,1.320800X0.508000*%
%ADD25RoundRect,0.102000X0.690000X-0.525000X0.690000X0.525000X-0.690000X0.525000X-0.690000X-0.525000X0*%
%ADD26RoundRect,0.101750X-0.590250X-0.305250X0.590250X-0.305250X0.590250X0.305250X-0.590250X0.305250X0*%
%ADD27RoundRect,0.085500X-0.751500X-0.256500X0.751500X-0.256500X0.751500X0.256500X-0.751500X0.256500X0*%
%ADD28RoundRect,0.102000X0.460000X0.690000X-0.460000X0.690000X-0.460000X-0.690000X0.460000X-0.690000X0*%
%ADD29RoundRect,0.102000X-0.550000X-0.600000X0.550000X-0.600000X0.550000X0.600000X-0.550000X0.600000X0*%
%ADD30RoundRect,0.102000X-0.985000X-0.285000X0.985000X-0.285000X0.985000X0.285000X-0.985000X0.285000X0*%
%ADD31RoundRect,0.085500X0.256500X-0.751500X0.256500X0.751500X-0.256500X0.751500X-0.256500X-0.751500X0*%
%ADD32R,1.449997X1.305598*%
%ADD33RoundRect,0.102000X0.690000X-0.460000X0.690000X0.460000X-0.690000X0.460000X-0.690000X-0.460000X0*%
%ADD34RoundRect,0.102000X0.285000X-0.985000X0.285000X0.985000X-0.285000X0.985000X-0.285000X-0.985000X0*%
%ADD35RoundRect,0.076200X-0.400000X-0.650000X0.400000X-0.650000X0.400000X0.650000X-0.400000X0.650000X0*%
%ADD36RoundRect,0.076200X-1.050000X-1.500000X1.050000X-1.500000X1.050000X1.500000X-1.050000X1.500000X0*%
%ADD37R,1.092200X1.143000*%
%ADD38RoundRect,0.102000X-0.200000X0.300000X-0.200000X-0.300000X0.200000X-0.300000X0.200000X0.300000X0*%
%ADD39RoundRect,0.102000X-0.300000X0.200000X-0.300000X-0.200000X0.300000X-0.200000X0.300000X0.200000X0*%
%ADD40R,1.600200X1.168400*%
%ADD41C,1.000000*%
%ADD42RoundRect,0.050800X0.380000X1.300000X-0.380000X1.300000X-0.380000X-1.300000X0.380000X-1.300000X0*%
%ADD43R,0.990600X0.889000*%
%ADD44R,0.558800X1.701800*%
%ADD45RoundRect,0.075000X-0.350000X-0.075000X0.350000X-0.075000X0.350000X0.075000X-0.350000X0.075000X0*%
%ADD46RoundRect,0.075000X0.075000X-0.350000X0.075000X0.350000X-0.075000X0.350000X-0.075000X-0.350000X0*%
%ADD47R,1.447800X1.117600*%
%ADD48R,1.663700X0.431800*%
%ADD49RoundRect,0.102000X0.425000X-0.500000X0.425000X0.500000X-0.425000X0.500000X-0.425000X-0.500000X0*%
%ADD50R,0.558800X1.193800*%
%ADD51RoundRect,0.102000X0.200000X0.675000X-0.200000X0.675000X-0.200000X-0.675000X0.200000X-0.675000X0*%
%ADD52RoundRect,0.102000X0.750000X0.775000X-0.750000X0.775000X-0.750000X-0.775000X0.750000X-0.775000X0*%
%ADD53O,1.504000X1.154000*%
%ADD54R,1.003300X0.508000*%
G04 APERTURE END LIST*
%TO.C,J1*%
D10*
X166069317Y-88190340D02*
X166101317Y-88192340D01*
X166132317Y-88196340D01*
X166163317Y-88202340D01*
X166193317Y-88209340D01*
X166223317Y-88218340D01*
X166253317Y-88229340D01*
X166282317Y-88241340D01*
X166310317Y-88254340D01*
X166338317Y-88269340D01*
X166365317Y-88286340D01*
X166391317Y-88304340D01*
X166416317Y-88323340D01*
X166439317Y-88343340D01*
X166462317Y-88365340D01*
X166484317Y-88388340D01*
X166504317Y-88411340D01*
X166523317Y-88436340D01*
X166541317Y-88462340D01*
X166558317Y-88489340D01*
X166573317Y-88517340D01*
X166586317Y-88545340D01*
X166598317Y-88574340D01*
X166609317Y-88604340D01*
X166618317Y-88634340D01*
X166625317Y-88664340D01*
X166631317Y-88695340D01*
X166635317Y-88726340D01*
X166637317Y-88758340D01*
X166638317Y-88789340D01*
X166638317Y-89339340D01*
X166637317Y-89370340D01*
X166635317Y-89402340D01*
X166631317Y-89433340D01*
X166625317Y-89464340D01*
X166618317Y-89494340D01*
X166609317Y-89524340D01*
X166598317Y-89554340D01*
X166586317Y-89583340D01*
X166573317Y-89611340D01*
X166558317Y-89639340D01*
X166541317Y-89666340D01*
X166523317Y-89692340D01*
X166504317Y-89717340D01*
X166484317Y-89740340D01*
X166462317Y-89763340D01*
X166439317Y-89785340D01*
X166416317Y-89805340D01*
X166391317Y-89824340D01*
X166365317Y-89842340D01*
X166338317Y-89859340D01*
X166310317Y-89874340D01*
X166282317Y-89887340D01*
X166253317Y-89899340D01*
X166223317Y-89910340D01*
X166193317Y-89919340D01*
X166163317Y-89926340D01*
X166132317Y-89932340D01*
X166101317Y-89936340D01*
X166069317Y-89938340D01*
X166038317Y-89939340D01*
X164793317Y-89939340D01*
X164793317Y-88189340D01*
X166038317Y-88189340D01*
X166069317Y-88190340D01*
G36*
X166069317Y-88190340D02*
G01*
X166101317Y-88192340D01*
X166132317Y-88196340D01*
X166163317Y-88202340D01*
X166193317Y-88209340D01*
X166223317Y-88218340D01*
X166253317Y-88229340D01*
X166282317Y-88241340D01*
X166310317Y-88254340D01*
X166338317Y-88269340D01*
X166365317Y-88286340D01*
X166391317Y-88304340D01*
X166416317Y-88323340D01*
X166439317Y-88343340D01*
X166462317Y-88365340D01*
X166484317Y-88388340D01*
X166504317Y-88411340D01*
X166523317Y-88436340D01*
X166541317Y-88462340D01*
X166558317Y-88489340D01*
X166573317Y-88517340D01*
X166586317Y-88545340D01*
X166598317Y-88574340D01*
X166609317Y-88604340D01*
X166618317Y-88634340D01*
X166625317Y-88664340D01*
X166631317Y-88695340D01*
X166635317Y-88726340D01*
X166637317Y-88758340D01*
X166638317Y-88789340D01*
X166638317Y-89339340D01*
X166637317Y-89370340D01*
X166635317Y-89402340D01*
X166631317Y-89433340D01*
X166625317Y-89464340D01*
X166618317Y-89494340D01*
X166609317Y-89524340D01*
X166598317Y-89554340D01*
X166586317Y-89583340D01*
X166573317Y-89611340D01*
X166558317Y-89639340D01*
X166541317Y-89666340D01*
X166523317Y-89692340D01*
X166504317Y-89717340D01*
X166484317Y-89740340D01*
X166462317Y-89763340D01*
X166439317Y-89785340D01*
X166416317Y-89805340D01*
X166391317Y-89824340D01*
X166365317Y-89842340D01*
X166338317Y-89859340D01*
X166310317Y-89874340D01*
X166282317Y-89887340D01*
X166253317Y-89899340D01*
X166223317Y-89910340D01*
X166193317Y-89919340D01*
X166163317Y-89926340D01*
X166132317Y-89932340D01*
X166101317Y-89936340D01*
X166069317Y-89938340D01*
X166038317Y-89939340D01*
X164793317Y-89939340D01*
X164793317Y-88189340D01*
X166038317Y-88189340D01*
X166069317Y-88190340D01*
G37*
X160393317Y-89939340D02*
X159148317Y-89939340D01*
X159117317Y-89938340D01*
X159085317Y-89936340D01*
X159054317Y-89932340D01*
X159023317Y-89926340D01*
X158993317Y-89919340D01*
X158963317Y-89910340D01*
X158933317Y-89899340D01*
X158904317Y-89887340D01*
X158876317Y-89874340D01*
X158848317Y-89859340D01*
X158821317Y-89842340D01*
X158795317Y-89824340D01*
X158770317Y-89805340D01*
X158747317Y-89785340D01*
X158724317Y-89763340D01*
X158702317Y-89740340D01*
X158682317Y-89717340D01*
X158663317Y-89692340D01*
X158645317Y-89666340D01*
X158628317Y-89639340D01*
X158613317Y-89611340D01*
X158600317Y-89583340D01*
X158588317Y-89554340D01*
X158577317Y-89524340D01*
X158568317Y-89494340D01*
X158561317Y-89464340D01*
X158555317Y-89433340D01*
X158551317Y-89402340D01*
X158549317Y-89370340D01*
X158548317Y-89339340D01*
X158548317Y-88789340D01*
X158549317Y-88758340D01*
X158551317Y-88726340D01*
X158555317Y-88695340D01*
X158561317Y-88664340D01*
X158568317Y-88634340D01*
X158577317Y-88604340D01*
X158588317Y-88574340D01*
X158600317Y-88545340D01*
X158613317Y-88517340D01*
X158628317Y-88489340D01*
X158645317Y-88462340D01*
X158663317Y-88436340D01*
X158682317Y-88411340D01*
X158702317Y-88388340D01*
X158724317Y-88365340D01*
X158747317Y-88343340D01*
X158770317Y-88323340D01*
X158795317Y-88304340D01*
X158821317Y-88286340D01*
X158848317Y-88269340D01*
X158876317Y-88254340D01*
X158904317Y-88241340D01*
X158933317Y-88229340D01*
X158963317Y-88218340D01*
X158993317Y-88209340D01*
X159023317Y-88202340D01*
X159054317Y-88196340D01*
X159085317Y-88192340D01*
X159117317Y-88190340D01*
X159148317Y-88189340D01*
X160393317Y-88189340D01*
X160393317Y-89939340D01*
G36*
X160393317Y-89939340D02*
G01*
X159148317Y-89939340D01*
X159117317Y-89938340D01*
X159085317Y-89936340D01*
X159054317Y-89932340D01*
X159023317Y-89926340D01*
X158993317Y-89919340D01*
X158963317Y-89910340D01*
X158933317Y-89899340D01*
X158904317Y-89887340D01*
X158876317Y-89874340D01*
X158848317Y-89859340D01*
X158821317Y-89842340D01*
X158795317Y-89824340D01*
X158770317Y-89805340D01*
X158747317Y-89785340D01*
X158724317Y-89763340D01*
X158702317Y-89740340D01*
X158682317Y-89717340D01*
X158663317Y-89692340D01*
X158645317Y-89666340D01*
X158628317Y-89639340D01*
X158613317Y-89611340D01*
X158600317Y-89583340D01*
X158588317Y-89554340D01*
X158577317Y-89524340D01*
X158568317Y-89494340D01*
X158561317Y-89464340D01*
X158555317Y-89433340D01*
X158551317Y-89402340D01*
X158549317Y-89370340D01*
X158548317Y-89339340D01*
X158548317Y-88789340D01*
X158549317Y-88758340D01*
X158551317Y-88726340D01*
X158555317Y-88695340D01*
X158561317Y-88664340D01*
X158568317Y-88634340D01*
X158577317Y-88604340D01*
X158588317Y-88574340D01*
X158600317Y-88545340D01*
X158613317Y-88517340D01*
X158628317Y-88489340D01*
X158645317Y-88462340D01*
X158663317Y-88436340D01*
X158682317Y-88411340D01*
X158702317Y-88388340D01*
X158724317Y-88365340D01*
X158747317Y-88343340D01*
X158770317Y-88323340D01*
X158795317Y-88304340D01*
X158821317Y-88286340D01*
X158848317Y-88269340D01*
X158876317Y-88254340D01*
X158904317Y-88241340D01*
X158933317Y-88229340D01*
X158963317Y-88218340D01*
X158993317Y-88209340D01*
X159023317Y-88202340D01*
X159054317Y-88196340D01*
X159085317Y-88192340D01*
X159117317Y-88190340D01*
X159148317Y-88189340D01*
X160393317Y-88189340D01*
X160393317Y-89939340D01*
G37*
%TD*%
D11*
%TO.C,U19*%
X196000000Y-123730000D03*
%TD*%
%TO.C,U18*%
X173150000Y-123810000D03*
%TD*%
%TO.C,U17*%
X129180000Y-91840000D03*
%TD*%
%TO.C,U16*%
X150050000Y-122230000D03*
%TD*%
D12*
%TO.C,C45*%
X143970000Y-86965000D03*
X143970000Y-88715000D03*
%TD*%
D13*
%TO.C,C44*%
X144885000Y-91310000D03*
X146635000Y-91310000D03*
%TD*%
%TO.C,C43*%
X151615000Y-88770000D03*
X149865000Y-88770000D03*
%TD*%
D14*
%TO.C,C22*%
X168959400Y-117475000D03*
X170815000Y-117475000D03*
%TD*%
D15*
%TO.C,D3*%
X166370000Y-96520000D03*
X166370000Y-98620000D03*
%TD*%
D16*
%TO.C,R3*%
X180335000Y-119405000D03*
X182245000Y-119405000D03*
%TD*%
D14*
%TO.C,C32*%
X191862200Y-117500000D03*
X193717800Y-117500000D03*
%TD*%
D13*
%TO.C,C4*%
X162800000Y-122555000D03*
X161050000Y-122555000D03*
%TD*%
D17*
%TO.C,C33*%
X188328300Y-125730000D03*
X190131700Y-125730000D03*
%TD*%
D13*
%TO.C,C15*%
X162800000Y-120015000D03*
X161050000Y-120015000D03*
%TD*%
D18*
%TO.C,C19*%
X158510000Y-125095000D03*
X160260000Y-125095000D03*
%TD*%
D19*
%TO.C,C28*%
X139065000Y-105890000D03*
X139065000Y-104140000D03*
%TD*%
D13*
%TO.C,C2*%
X152640000Y-113194340D03*
X150890000Y-113194340D03*
%TD*%
D20*
%TO.C,U2*%
X160689117Y-111924340D03*
D21*
X160689117Y-110654340D03*
X160689117Y-109384340D03*
%TD*%
D22*
%TO.C,R26*%
X150495000Y-103984340D03*
X150495000Y-105894340D03*
%TD*%
D23*
%TO.C,C29*%
X131445000Y-91732800D03*
X131445000Y-89877200D03*
%TD*%
D22*
%TO.C,R11*%
X185485000Y-124800000D03*
X185485000Y-126710000D03*
%TD*%
D24*
%TO.C,U8*%
X172085000Y-97004339D03*
X172085000Y-97954340D03*
X172085000Y-98904341D03*
X174675800Y-98904341D03*
X174675800Y-97004339D03*
%TD*%
D25*
%TO.C,C1*%
X147320000Y-111200140D03*
X147320000Y-109424140D03*
%TD*%
D16*
%TO.C,R22*%
X138745000Y-113665000D03*
X140655000Y-113665000D03*
%TD*%
%TO.C,R9*%
X169894117Y-94779340D03*
X171804117Y-94779340D03*
%TD*%
D26*
%TO.C,Q3*%
X161908317Y-97789340D03*
X161908317Y-99619340D03*
X163958317Y-98704340D03*
%TD*%
D16*
%TO.C,R20*%
X138745000Y-98030000D03*
X140655000Y-98030000D03*
%TD*%
D27*
%TO.C,U5*%
X154695000Y-120945000D03*
X154695000Y-121595000D03*
X154695000Y-122245000D03*
X154695000Y-122895000D03*
X158995000Y-122895000D03*
X158995000Y-122245000D03*
X158995000Y-121595000D03*
X158995000Y-120945000D03*
%TD*%
D12*
%TO.C,C38*%
X154940000Y-107874340D03*
X154940000Y-109624340D03*
%TD*%
D28*
%TO.C,R13*%
X162880000Y-117475000D03*
X160970000Y-117475000D03*
%TD*%
D29*
%TO.C,D1*%
X183954117Y-86995000D03*
X181854117Y-86995000D03*
%TD*%
D30*
%TO.C,U15*%
X188660000Y-119405000D03*
X188660000Y-120675000D03*
X188660000Y-121945000D03*
X188660000Y-123215000D03*
X193610000Y-123215000D03*
X193610000Y-121945000D03*
X193610000Y-120675000D03*
X193610000Y-119405000D03*
%TD*%
D31*
%TO.C,U10*%
X134739201Y-105917550D03*
X135389201Y-105917550D03*
X136039201Y-105917550D03*
X136689201Y-105917550D03*
X136689201Y-101617550D03*
X136039201Y-101617550D03*
X135389201Y-101617550D03*
X134739201Y-101617550D03*
%TD*%
D16*
%TO.C,R17*%
X165415000Y-117475000D03*
X167325000Y-117475000D03*
%TD*%
D32*
%TO.C,C6*%
X180374117Y-102063742D03*
X180374117Y-103669340D03*
%TD*%
D33*
%TO.C,R19*%
X132715000Y-103430000D03*
X132715000Y-101520000D03*
%TD*%
D16*
%TO.C,R6*%
X182274117Y-89064340D03*
X184184117Y-89064340D03*
%TD*%
%TO.C,R2*%
X166050000Y-93980000D03*
X167960000Y-93980000D03*
%TD*%
%TO.C,R34*%
X146285000Y-124446400D03*
X148195000Y-124446400D03*
%TD*%
D18*
%TO.C,C17*%
X177240000Y-125120000D03*
X178990000Y-125120000D03*
%TD*%
D16*
%TO.C,R14*%
X157160000Y-118745000D03*
X159070000Y-118745000D03*
%TD*%
D13*
%TO.C,C34*%
X139925000Y-119366400D03*
X138175000Y-119366400D03*
%TD*%
%TO.C,C16*%
X185975000Y-122580000D03*
X184225000Y-122580000D03*
%TD*%
D16*
%TO.C,R16*%
X168590000Y-125095000D03*
X170500000Y-125095000D03*
%TD*%
D34*
%TO.C,U11*%
X133350000Y-94790000D03*
X134620000Y-94790000D03*
X135890000Y-94790000D03*
X137160000Y-94790000D03*
X137160000Y-89840000D03*
X135890000Y-89840000D03*
X134620000Y-89840000D03*
X133350000Y-89840000D03*
%TD*%
D19*
%TO.C,C7*%
X190731617Y-95611840D03*
X190731617Y-93861840D03*
%TD*%
D32*
%TO.C,C5*%
X180374117Y-100027139D03*
X180374117Y-98421541D03*
%TD*%
D35*
%TO.C,J2*%
X171494117Y-87159340D03*
X172744117Y-87159340D03*
D36*
X168944117Y-89909340D03*
X175294117Y-89909340D03*
%TD*%
D16*
%TO.C,R5*%
X134300000Y-114300000D03*
X136210000Y-114300000D03*
%TD*%
D22*
%TO.C,R36*%
X159368317Y-102230000D03*
X159368317Y-104140000D03*
%TD*%
D16*
%TO.C,R28*%
X188025000Y-117500000D03*
X189935000Y-117500000D03*
%TD*%
D17*
%TO.C,C23*%
X164833300Y-125730000D03*
X166636700Y-125730000D03*
%TD*%
D33*
%TO.C,R30*%
X131445000Y-95175000D03*
X131445000Y-93265000D03*
%TD*%
D12*
%TO.C,C13*%
X169545000Y-96839340D03*
X169545000Y-98589340D03*
%TD*%
D29*
%TO.C,D4*%
X184184117Y-92075000D03*
X182084117Y-92075000D03*
%TD*%
D30*
%TO.C,U13*%
X142860000Y-118731400D03*
X142860000Y-120001400D03*
X142860000Y-121271400D03*
X142860000Y-122541400D03*
X147810000Y-122541400D03*
X147810000Y-121271400D03*
X147810000Y-120001400D03*
X147810000Y-118731400D03*
%TD*%
D13*
%TO.C,C36*%
X133510000Y-124446400D03*
X131760000Y-124446400D03*
%TD*%
D37*
%TO.C,D2*%
X159758317Y-97167640D03*
X159758317Y-100241040D03*
%TD*%
D19*
%TO.C,C10*%
X168258317Y-103669340D03*
X168258317Y-101919340D03*
%TD*%
D16*
%TO.C,R10*%
X182274117Y-94144340D03*
X184184117Y-94144340D03*
%TD*%
%TO.C,R35*%
X142475000Y-116826400D03*
X144385000Y-116826400D03*
%TD*%
D22*
%TO.C,R18*%
X131445000Y-97710000D03*
X131445000Y-99620000D03*
%TD*%
D19*
%TO.C,C8*%
X156845000Y-91844340D03*
X156845000Y-90094340D03*
%TD*%
D16*
%TO.C,R29*%
X192085000Y-125120000D03*
X193995000Y-125120000D03*
%TD*%
D22*
%TO.C,R25*%
X147955000Y-103984340D03*
X147955000Y-105894340D03*
%TD*%
%TO.C,R38*%
X177834117Y-92239340D03*
X177834117Y-94149340D03*
%TD*%
D38*
%TO.C,MDBT1*%
X193270000Y-99079340D03*
X192170000Y-99079340D03*
X191370000Y-99079340D03*
X189770000Y-99079340D03*
X189370000Y-99979340D03*
X188970000Y-99079340D03*
X188570000Y-99979340D03*
X188170000Y-99079340D03*
X187770000Y-99979340D03*
X187370000Y-99079340D03*
X186970000Y-99979340D03*
X186570000Y-99079340D03*
X186170000Y-99979340D03*
X185770000Y-99079340D03*
D39*
X182370000Y-98929340D03*
X182370000Y-99729340D03*
X182370000Y-100529340D03*
X182370000Y-101329340D03*
X183270000Y-101729340D03*
X182370000Y-102129340D03*
X183270000Y-102529340D03*
X182370000Y-102929340D03*
X183270000Y-103329340D03*
X182370000Y-103729340D03*
X183270000Y-104129340D03*
X182370000Y-104529340D03*
X183270000Y-104929340D03*
X182370000Y-105329340D03*
X183270000Y-105729340D03*
X182370000Y-106129340D03*
X182370000Y-106929340D03*
X182370000Y-107729340D03*
X182370000Y-108529340D03*
D38*
X183370000Y-108379340D03*
X184170000Y-108379340D03*
X184570000Y-107479340D03*
X184970000Y-108379340D03*
X185370000Y-107479340D03*
X185770000Y-108379340D03*
X186170000Y-107479340D03*
X186570000Y-108379340D03*
X186970000Y-107479340D03*
X187770000Y-107479340D03*
X188170000Y-108379340D03*
X188570000Y-107479340D03*
X188970000Y-108379340D03*
X189370000Y-107479340D03*
X189770000Y-108379340D03*
X190170000Y-107479340D03*
X190970000Y-107479340D03*
X191370000Y-108379340D03*
X191770000Y-107479340D03*
X192170000Y-108379340D03*
X192570000Y-107479340D03*
X193270000Y-108379340D03*
D39*
X188970000Y-101729340D03*
X188970000Y-102529340D03*
X188970000Y-103329340D03*
X188970000Y-104129340D03*
X188970000Y-104929340D03*
X188970000Y-105729340D03*
%TD*%
D40*
%TO.C,Y1*%
X177834117Y-99371342D03*
X177834117Y-102216142D03*
%TD*%
D41*
%TO.C,X1*%
X175294117Y-110654340D03*
X171484117Y-110654340D03*
D42*
X175929117Y-108504340D03*
X175929117Y-112804340D03*
X174659117Y-108504340D03*
X174659117Y-112804340D03*
X173389117Y-108504340D03*
X173389117Y-112804340D03*
X172119117Y-108504340D03*
X172119117Y-112804340D03*
X170849117Y-108504340D03*
X170849117Y-112804340D03*
%TD*%
D43*
%TO.C,SW2*%
X192680000Y-90969996D03*
X192680000Y-86870000D03*
X194280002Y-90969996D03*
X194280002Y-86870000D03*
D44*
X192055000Y-88919998D03*
%TD*%
D11*
%TO.C,U3*%
X131445000Y-109220000D03*
X131445000Y-111760000D03*
X133985000Y-109220000D03*
X133985000Y-111760000D03*
X136525000Y-109220000D03*
X136525000Y-111760000D03*
X139065000Y-109220000D03*
X139065000Y-111760000D03*
X141605000Y-109220000D03*
X141605000Y-111760000D03*
X144145000Y-109220000D03*
X144145000Y-111760000D03*
%TD*%
D16*
%TO.C,R32*%
X134285000Y-118096400D03*
X136195000Y-118096400D03*
%TD*%
D22*
%TO.C,R33*%
X139685000Y-124126400D03*
X139685000Y-126036400D03*
%TD*%
D28*
%TO.C,R12*%
X186055000Y-117500000D03*
X184145000Y-117500000D03*
%TD*%
D22*
%TO.C,R27*%
X163864117Y-109064340D03*
X163864117Y-110974340D03*
%TD*%
D12*
%TO.C,C20*%
X173355000Y-119775000D03*
X173355000Y-121525000D03*
%TD*%
D22*
%TO.C,R7*%
X157218317Y-97749340D03*
X157218317Y-99659340D03*
%TD*%
D13*
%TO.C,C18*%
X185975000Y-120040000D03*
X184225000Y-120040000D03*
%TD*%
D43*
%TO.C,SW1*%
X188709998Y-90999996D03*
X188709998Y-86900000D03*
X190310000Y-90999996D03*
X190310000Y-86900000D03*
D44*
X188084998Y-88949998D03*
%TD*%
D45*
%TO.C,U1*%
X149225000Y-108114340D03*
X149225000Y-108614340D03*
X149225000Y-109114340D03*
X149225000Y-109614340D03*
X149225000Y-110114340D03*
X149225000Y-110614340D03*
D46*
X149925000Y-111314340D03*
X150425000Y-111314340D03*
X150925000Y-111314340D03*
X151425000Y-111314340D03*
X151925000Y-111314340D03*
X152425000Y-111314340D03*
D45*
X153125000Y-110614340D03*
X153125000Y-110114340D03*
X153125000Y-109614340D03*
X153125000Y-109114340D03*
X153125000Y-108614340D03*
X153125000Y-108114340D03*
D46*
X152425000Y-107414340D03*
X151925000Y-107414340D03*
X151425000Y-107414340D03*
X150925000Y-107414340D03*
X150425000Y-107414340D03*
X149925000Y-107414340D03*
%TD*%
D16*
%TO.C,R8*%
X173678717Y-94779340D03*
X175588717Y-94779340D03*
%TD*%
D12*
%TO.C,C3*%
X196030000Y-119800000D03*
X196030000Y-121550000D03*
%TD*%
D30*
%TO.C,IC1*%
X186789117Y-110490000D03*
X186789117Y-111760000D03*
X186789117Y-113030000D03*
X186789117Y-114300000D03*
X191739117Y-114300000D03*
X191739117Y-113030000D03*
X191739117Y-111760000D03*
X191739117Y-110490000D03*
%TD*%
D18*
%TO.C,C35*%
X135570000Y-124446400D03*
X137320000Y-124446400D03*
%TD*%
D19*
%TO.C,C40*%
X150415000Y-120241400D03*
X150415000Y-118491400D03*
%TD*%
D33*
%TO.C,R21*%
X139065000Y-91365000D03*
X139065000Y-89455000D03*
%TD*%
D19*
%TO.C,C9*%
X188191617Y-95611840D03*
X188191617Y-93861840D03*
%TD*%
D27*
%TO.C,U12*%
X131820000Y-120296400D03*
X131820000Y-120946400D03*
X131820000Y-121596400D03*
X131820000Y-122246400D03*
X136120000Y-122246400D03*
X136120000Y-121596400D03*
X136120000Y-120946400D03*
X136120000Y-120296400D03*
%TD*%
D19*
%TO.C,C14*%
X165718317Y-103669340D03*
X165718317Y-101919340D03*
%TD*%
D13*
%TO.C,C37*%
X183250000Y-125120000D03*
X181500000Y-125120000D03*
%TD*%
D30*
%TO.C,U9*%
X165800000Y-119380000D03*
X165800000Y-120650000D03*
X165800000Y-121920000D03*
X165800000Y-123190000D03*
X170750000Y-123190000D03*
X170750000Y-121920000D03*
X170750000Y-120650000D03*
X170750000Y-119380000D03*
%TD*%
D47*
%TO.C,C30*%
X139700000Y-94855000D03*
X139700000Y-93051600D03*
%TD*%
D14*
%TO.C,C39*%
X152400000Y-105574340D03*
X154255600Y-105574340D03*
%TD*%
D22*
%TO.C,R37*%
X177834117Y-88744340D03*
X177834117Y-90654340D03*
%TD*%
%TO.C,R15*%
X162560000Y-124775000D03*
X162560000Y-126685000D03*
%TD*%
D48*
%TO.C,U6*%
X152434117Y-93389340D03*
X152434117Y-94039341D03*
X152434117Y-94689340D03*
X152434117Y-95339341D03*
X152434117Y-95989340D03*
X152434117Y-96639341D03*
X152434117Y-97289340D03*
X152434117Y-97939338D03*
X152434117Y-98589340D03*
X152434117Y-99239338D03*
X152434117Y-99889339D03*
X152434117Y-100539338D03*
X145182417Y-100539338D03*
X145182417Y-99889337D03*
X145182417Y-99239338D03*
X145182417Y-98589337D03*
X145182417Y-97939338D03*
X145182417Y-97289337D03*
X145182417Y-96639338D03*
X145182417Y-95989337D03*
X145182417Y-95339338D03*
X145182417Y-94689337D03*
X145182417Y-94039339D03*
X145182417Y-93389340D03*
%TD*%
D16*
%TO.C,R1*%
X162240000Y-94144340D03*
X164150000Y-94144340D03*
%TD*%
D49*
%TO.C,D5*%
X193031617Y-96486840D03*
X194781617Y-96486840D03*
X194781617Y-92986840D03*
X193031617Y-92986840D03*
%TD*%
D50*
%TO.C,U14*%
X146050000Y-89250000D03*
X147950002Y-89250000D03*
X147000001Y-87091000D03*
%TD*%
D28*
%TO.C,R31*%
X140005000Y-116840000D03*
X138095000Y-116840000D03*
%TD*%
D18*
%TO.C,C27*%
X134140000Y-87235000D03*
X135890000Y-87235000D03*
%TD*%
D19*
%TO.C,C12*%
X156845000Y-103669340D03*
X156845000Y-101919340D03*
%TD*%
D13*
%TO.C,C31*%
X139925000Y-121906400D03*
X138175000Y-121906400D03*
%TD*%
D18*
%TO.C,C11*%
X183309117Y-97319340D03*
X185059117Y-97319340D03*
%TD*%
D51*
%TO.C,J1*%
X163893317Y-91739340D03*
X163243317Y-91739340D03*
X162593317Y-91739340D03*
X161943317Y-91739340D03*
X161293317Y-91739340D03*
D52*
X161593317Y-89064340D03*
X163593317Y-89064340D03*
D53*
X165093317Y-91764340D03*
X160093317Y-91764340D03*
%TD*%
D12*
%TO.C,C25*%
X133985000Y-97790000D03*
X133985000Y-99540000D03*
%TD*%
D16*
%TO.C,R4*%
X130805000Y-114300000D03*
X132715000Y-114300000D03*
%TD*%
D18*
%TO.C,C21*%
X154700000Y-125095000D03*
X156450000Y-125095000D03*
%TD*%
D12*
%TO.C,C24*%
X136525000Y-97790000D03*
X136525000Y-99540000D03*
%TD*%
D54*
%TO.C,U7*%
X161108217Y-102159340D03*
X161108217Y-103109341D03*
X161108217Y-104059342D03*
X163813317Y-104059342D03*
X163813317Y-102159340D03*
%TD*%
D27*
%TO.C,U4*%
X177870000Y-121280000D03*
X177870000Y-121930000D03*
X177870000Y-122580000D03*
X177870000Y-123230000D03*
X182170000Y-123230000D03*
X182170000Y-122580000D03*
X182170000Y-121930000D03*
X182170000Y-121280000D03*
%TD*%
D14*
%TO.C,C41*%
X146312200Y-116826400D03*
X148167800Y-116826400D03*
%TD*%
D17*
%TO.C,C42*%
X142528300Y-125095000D03*
X144331700Y-125095000D03*
%TD*%
D19*
%TO.C,C26*%
X139065000Y-102080000D03*
X139065000Y-100330000D03*
%TD*%
M02*
